<svg xmlns="http://www.w3.org/2000/svg"  viewBox="0 0 100 100" width="100px" height="100px" fill-rule="evenodd" clip-rule="evenodd"><path fill="#f2bd00" d="M79,14c0,0.553-0.448,1-1,1s-1-0.447-1-1s0.448-1,1-1S79,13.447,79,14"/><path fill="#f9dad0" d="M88,50c0,20.987-17.013,38-38,38S12,70.987,12,50s17.013-38,38-38S88,29.013,88,50"/><path fill="#f2bd00" d="M88,16c0,2.209-1.791,4-4,4s-4-1.791-4-4s1.791-4,4-4S88,13.791,88,16"/><path fill="#f13950" d="M16,26c0,1.104-0.896,2-2,2s-2-0.896-2-2s0.896-2,2-2S16,24.896,16,26"/><path fill="#fbce4d" d="M80,77c0,1.104-0.896,2-2,2s-2-0.896-2-2s0.896-2,2-2S80,75.896,80,77"/><path fill="#fbce4d" d="M21,78c0,2.209-1.791,4-4,4s-4-1.791-4-4s1.791-4,4-4S21,75.791,21,78"/><path fill="#f13950" d="M26,83c0,1.104-0.896,2-2,2s-2-0.896-2-2s0.896-2,2-2S26,81.896,26,83"/><path fill="#fff" d="M64,78.517c0-1.372,1.112-2.483,2.483-2.483c1.372,0,2.484,1.111,2.484,2.483	c0,1.371-1.112,2.483-2.484,2.483C65.112,81,64,79.888,64,78.517"/><path fill="#fff" d="M17,48c0,0.553-0.448,1-1,1s-1-0.447-1-1s0.448-1,1-1S17,47.447,17,48"/><path fill="#f2bd00" d="M87,31c0,0.553-0.448,1-1,1s-1-0.447-1-1s0.448-1,1-1S87,30.447,87,31"/><path fill="#fff" d="M82,66c0,1.104-0.896,2-2,2s-2-0.896-2-2s0.896-2,2-2S82,64.896,82,66"/><path fill="#789fce" d="M28.004,65.001l-0.003-30C28,31.135,31.134,28,35.001,28H65c3.866,0,7,3.134,7,7v30 c0,3.866-3.134,7-7,7H35.004C31.139,72,28.004,68.866,28.004,65.001"/><polygon fill="#fcfbed" fill-rule="evenodd" points="34.838,64.943 30.741,60.674 31.929,55.626 36.681,60.08" clip-rule="evenodd"/><path fill="#f59072" fill-rule="evenodd" d="M56.602,63.051l2.061,2.97l1.782-1.782l1.782,1.782 l1.255-2.376l1.461,1.782l1.443-3.161l-0.959-2.186c0,0-2.011,1.712-3.793,2.186C59.851,62.74,56.602,63.051,56.602,63.051z" clip-rule="evenodd"/><path fill="#f3979d" fill-rule="evenodd" d="M55.692,63.051c4.235-0.4,7.932-1.104,10.739-3.301 l2.331,1.519c0,0,0.796-4.753,0.398-7.723c-0.398-2.97-2.414-7.129-2.414-7.129l5.216,8.313v-16.63l-2.013-1.188l2.013-1.188 l-0.23-1.188c-4.636-1.104-6.314-3.749-7.723-6.535H42.028c0,0-5.99,1.782-8.045,4.159c-2.055,2.376-4.431,7.129-4.431,7.129 l-1.188,2.376h1.188c0,0-0.211,6.975,0.6,9.505c0.86,2.68,3.388,6.535,4.643,7.129c1.255,0.594,4.263,2.97,4.263,2.97l-2.376-4.159 l1.188-0.594l-1.819-4.753c-0.557-2.221,0.016-6.4,3.007-9.826c0.496,1.744,1.131,5.702,6.535,11.014 c2.008,1.974,4.907,3.309,4.907,3.309c-1.126-3.496-1.936-7.188-1.203-10.235l2.831,2.768c1.014-1.022,1.914-2.39,1.913-3.755 c2.211,1.97,3.821,5.259,4.622,9.102v-6.212c0,0,3.564,3.242,3.564,6.806C62.227,58.298,55.692,63.051,55.692,63.051z" clip-rule="evenodd" opacity=".9"/><path fill="#ec3d54" fill-rule="evenodd" d="M57.474,71.962l-2.376-3.564l-1.188-2.97 c0,0,0,1.188-1.188,1.782c-1.188,0.594-6.535,1.188-6.535,1.188l1.782-4.753l-2.376-0.22l-8.317-3.344c0,0-1.57,1.68-1.886,3.344 c-0.316,1.664-0.594,3.131-0.594,3.131l4.857,1.841l-1.356,3.289L57.474,71.962z" clip-rule="evenodd"/><path fill="#fcd4b2" fill-rule="evenodd" d="M40.246,61.863l-3.564-4.753c0,0,0.57,0.287,0.594-1.484 c-3.565-8.021,1.782-13.368,1.782-13.368C38.2,43.417,45.593,54.734,50.345,56.26l-1.188-9.844l2.97,1.782 c1.568-0.594,1.782-2.97,1.782-2.97c1.65,1.096,3.224,4.72,4.753,8.911c0,0,0.594-3.374,0.594-5.347 c1.983,1.645,2.857,3.889,2.97,6.542c-0.479,2.369-3.756,6.15-5.347,6.931c-1.296,0.636-3.564,1.634-3.564,1.634l0.38,1.8 c-1.207,1.98-4.161,2.672-7.509,3.071l1.485-5.721L40.246,61.863z" clip-rule="evenodd"/><path fill="#3d72b0" fill-rule="evenodd" d="M52.601,50.245c0,0-0.82,2.376-0.428,3.564 c0.392,1.188,1.523,2.707,1.523,2.707l2.906-0.256l1.466-3.088l-1.188-2.597L52.601,50.245z" clip-rule="evenodd"/><path fill="#3d72b0" fill-rule="evenodd" d="M41.646,49.756c0.717,0.679,2.164,2.333,2.164,3.196 l-1.188,3.309l-2.68,0.256c0,0-1.478-1.188-1.478-2.97c0-1.782,0.372-4.753,0.372-4.753L41.646,49.756z" clip-rule="evenodd"/><path fill="#482b28" d="M30.945,60.581c-0.11,0-0.221-0.036-0.313-0.111c-0.215-0.173-0.249-0.488-0.075-0.703 c0.926-1.148,1.98-1.972,3.226-2.52c0.253-0.111,0.548,0.003,0.659,0.256c0.111,0.252-0.003,0.547-0.256,0.659 c-1.11,0.489-2.015,1.198-2.85,2.233C31.236,60.517,31.091,60.581,30.945,60.581z"/><path fill="#482b28" d="M33.117,63.551c-0.042,0-0.085-0.005-0.127-0.016c-0.267-0.07-0.427-0.343-0.357-0.611 c0.474-1.808,1.297-3.246,2.518-4.396c0.201-0.19,0.518-0.181,0.707,0.021c0.189,0.201,0.18,0.517-0.021,0.707 c-1.08,1.018-1.811,2.3-2.235,3.922C33.542,63.402,33.339,63.551,33.117,63.551z"/><path fill-rule="evenodd" d="M51.533,50.765c0,0,3.01-1.188,5.635,0" clip-rule="evenodd"/><path fill="#482b28" fill-rule="evenodd" d="M46.554,59.486c0.328,0,0.727,0.532,0.891,1.188 c0.164,0.656,0.031,1.188-0.297,1.188s-0.727-0.532-0.891-1.188C46.093,60.019,46.226,59.486,46.554,59.486z" clip-rule="evenodd"/><path fill-rule="evenodd" d="M59.257,51.763c0.427,0.326,1,1.067,1.188,1.782" clip-rule="evenodd"/><path fill="#482b28" d="M60.444,54.045c-0.222,0-0.424-0.148-0.483-0.373c-0.151-0.574-0.641-1.232-1.008-1.512 c-0.22-0.167-0.262-0.481-0.094-0.701s0.481-0.263,0.701-0.094c0.515,0.393,1.151,1.225,1.369,2.052 c0.07,0.267-0.089,0.541-0.356,0.611C60.529,54.04,60.487,54.045,60.444,54.045z"/><path fill="#482b28" d="M71.732,65.333c-5.071,0-6.409-4.476-6.422-4.521c-0.076-0.265,0.078-0.541,0.342-0.617 c0.265-0.079,0.542,0.076,0.619,0.341c0.045,0.155,1.157,3.797,5.46,3.797c0.276,0,0.5,0.224,0.5,0.5S72.009,65.333,71.732,65.333z"/><path fill="#482b28" d="M71.732,54.64c-0.103,0-0.206-0.031-0.295-0.097c-1.536-1.125-3.706-5.274-3.962-7.131 c-0.038-0.273,0.153-0.526,0.427-0.563c0.271-0.045,0.526,0.153,0.563,0.427c0.244,1.762,2.341,5.566,3.562,6.461 c0.223,0.163,0.271,0.476,0.108,0.699C72.038,54.569,71.886,54.64,71.732,54.64z"/><path fill="#482b28" d="M28.438,55.837c-0.188,0-0.322-0.007-0.378-0.011c-0.275-0.018-0.484-0.256-0.466-0.531 c0.018-0.276,0.255-0.48,0.531-0.467c0.607,0.039,2.416-0.039,2.746-0.873c0.102-0.257,0.392-0.382,0.649-0.281 c0.256,0.102,0.382,0.392,0.281,0.649C31.262,55.684,29.297,55.837,28.438,55.837z"/><path fill="#482b28" fill-rule="evenodd" d="M65.837,60.344c0,0,0.594,2.874,1.782,3.283 c1.188,0.408,4.978,1.206,4.978,1.206v-7.525l-1.087-3.431c-1.358-1.246-2.63-4.026-3.891-7.025l-0.639,0.159 c0,0,1.807,4.49,2.144,6.866c0.218,1.533,0.257,4.989-0.518,7.119c-0.675-0.555-1.341-0.963-1.739-1.561 C66.521,59.762,66.171,60.066,65.837,60.344z" clip-rule="evenodd"/><polygon fill="#482b28" fill-rule="evenodd" points="32.817,63.425 35.363,58.892 37.085,60.305 34.899,64.637" clip-rule="evenodd"/><polygon fill="#482b28" fill-rule="evenodd" points="30.741,59.998 33.984,57.336 31.929,55.626" clip-rule="evenodd"/><path fill="#482b28" fill-rule="evenodd" d="M27.77,55.328c0,0,0.908,0.262,1.782,0 c0.875-0.262,1.782-1.188,1.782-1.188s-1.307-2.229-1.451-3.374c-0.144-1.145-0.331-4.848-0.331-4.848l-1.782,2.28V55.328z" clip-rule="evenodd"/><path fill="#fff" fill-rule="evenodd" d="M41.677,52.357c0.391,0,0.708,0.532,0.708,1.188 c0,0.656-0.317,1.188-0.708,1.188c-0.391,0-0.708-0.532-0.708-1.188C40.969,52.89,41.286,52.357,41.677,52.357z" clip-rule="evenodd"/><path fill="#fff" fill-rule="evenodd" d="M56.059,52.353c0.391,0,0.708,0.532,0.708,1.188 c0,0.656-0.317,1.188-0.708,1.188c-0.391,0-0.708-0.532-0.708-1.188C55.351,52.886,55.668,52.353,56.059,52.353z" clip-rule="evenodd"/><path fill="#482b28" d="M41.18,35.035c-0.127,0-0.254-0.048-0.352-0.145c-0.196-0.194-0.198-0.511-0.004-0.707l1.442-1.458 c0.194-0.196,0.51-0.198,0.707-0.004c0.196,0.194,0.198,0.511,0.004,0.707l-1.442,1.458C41.438,34.985,41.309,35.035,41.18,35.035z"/><path fill="#482b28" d="M71.528,35.035c0.276,0,0.5-0.224,0.5-0.5s-0.224-0.5-0.5-0.5c-3.476,0-4.268-2.497-4.302-2.61 c-0.077-0.265-0.352-0.415-0.618-0.34c-0.265,0.076-0.418,0.353-0.342,0.619C66.275,31.736,67.273,35.035,71.528,35.035z"/><path fill="#482b28" d="M70.965,37.1l0.925-0.309c0.262-0.087,0.403-0.37,0.316-0.632c-0.087-0.262-0.368-0.403-0.632-0.316 l-1.783,0.594c-0.172,0.057-0.3,0.204-0.333,0.383s0.033,0.362,0.174,0.477l1.783,1.468c0.093,0.077,0.206,0.114,0.317,0.114 c0.145,0,0.288-0.062,0.386-0.182c0.176-0.213,0.146-0.528-0.068-0.704L70.965,37.1z"/><path fill="#482b28" d="M72.002,48.372l-4.333-2.772c0.605-0.25,1.199-0.543,1.765-0.926 c0.164-0.111,0.247-0.307,0.212-0.501s-0.18-0.35-0.372-0.398c-2.131-0.53-3.458-1.279-4.056-2.29 c-0.141-0.237-0.446-0.315-0.685-0.175c-0.237,0.141-0.316,0.447-0.175,0.685c0.627,1.06,1.766,1.844,3.542,2.427 c-1.374,0.697-2.864,0.991-4.448,0.877c-0.274-0.026-0.515,0.187-0.535,0.462s0.187,0.515,0.462,0.535 c0.249,0.018,0.495,0.027,0.74,0.027c0.783,0,1.539-0.117,2.276-0.301c2.36,4.406,3.032,9.551,1.867,14.281l-1.161-1.168 c-0.099-0.1-0.24-0.156-0.375-0.146c-0.14,0.005-0.272,0.071-0.362,0.177c-0.024,0.029-2.331,2.644-8.859,3.265 c2.005-1.483,5.223-4.377,5.223-7.697c0-3.932-2.922-6.191-3.641-6.688l-1.136-3.563c-0.084-0.263-0.367-0.411-0.628-0.325 c-0.263,0.084-0.408,0.365-0.325,0.628l1.184,3.716c0.394,1.506,0.519,2.917,0.373,4.266c-1.023-2.917-2.39-5.629-4.228-8.41 c-0.124-0.187-0.358-0.267-0.57-0.2c-0.214,0.069-0.355,0.271-0.346,0.496c0.061,1.538-0.228,2.403-1.201,3.378 c-0.941-1.306-1.576-1.693-2.477-2.16c0.152-1.419,0.554-2.961,1.23-4.612c0.104-0.256-0.018-0.548-0.273-0.652 c-0.253-0.104-0.547,0.018-0.652,0.273c-0.731,1.789-1.158,3.466-1.309,5.017c-0.032,0.058-0.061,0.12-0.068,0.188 c-0.325,3.113,0.018,6.142,1.047,9.216c-5.409-3.598-8.74-8.022-10.166-13.49c-0.014-0.052-0.051-0.091-0.079-0.135 c-0.239-0.983-0.668-3.47,0.625-5.042c0.175-0.213,0.145-0.528-0.068-0.704c-0.214-0.176-0.528-0.145-0.704,0.068 c-1.57,1.908-1.12,4.706-0.837,5.874c-0.554,0.752-2.186,3.154-2.879,6.216c-0.167,0.739-0.198,1.531-0.141,2.327 c-0.047,0.138-0.026,0.287,0.049,0.413c0.239,2.202,1.082,4.369,1.572,5.464h-0.653c-0.188,0-0.359,0.105-0.445,0.272 c-0.086,0.167-0.07,0.368,0.039,0.521l1.997,2.771c-0.136-0.076-0.274-0.155-0.416-0.237c0,0-0.001-0.001-0.001-0.001 c-0.007-0.006-0.017-0.008-0.025-0.014c-1.095-0.636-2.334-1.446-3.113-2.248c-2.815-2.897-4.3-6.184-4.411-9.766 c-0.06-1.924,0.396-5.828,0.4-5.867c0.032-0.273-0.164-0.522-0.438-0.555l-0.934-0.111c0.495-0.581,1.151-1.415,1.513-2.139 c0.076-0.152,0.18-0.387,0.309-0.68c0.491-1.114,1.404-3.188,2.593-4.563c3.727-4.312,8.567-5.172,8.616-5.181 c0.272-0.046,0.456-0.304,0.41-0.576c-0.046-0.272-0.304-0.458-0.575-0.411c-0.212,0.035-5.235,0.917-9.208,5.513 c-1.287,1.489-2.239,3.652-2.751,4.815c-0.121,0.273-0.217,0.493-0.288,0.635c-0.553,1.106-1.979,2.609-1.993,2.624 c-0.131,0.137-0.173,0.336-0.109,0.515c0.064,0.178,0.224,0.305,0.411,0.327l1.395,0.167c-0.123,1.134-0.4,3.92-0.351,5.519 c0.086,2.748,0.932,5.323,2.496,7.697c-0.018,0.022-0.041,0.039-0.055,0.064c-0.889,1.583-1.079,3.175-1.25,5.252 c-0.009,0.112,0.02,0.223,0.082,0.317c1.421,2.148,2.476,3.095,4.147,4.265c-0.072,0.438-0.134,0.887-0.173,1.358 c-0.019,0.224,0.114,0.434,0.326,0.511l4.331,1.589c-0.515,0.89-0.882,1.877-0.987,2.965c-0.027,0.275,0.174,0.52,0.449,0.546 c0.017,0.001,0.033,0.002,0.049,0.002c0.254,0,0.472-0.193,0.497-0.452c0.479-4.943,7.346-7.819,7.415-7.848 c0.005-0.002,0.009-0.007,0.014-0.009c0.284,0.041,0.567,0.085,0.854,0.116c-0.717,1.145-1.964,3.383-1.417,4.388 c0.105,0.192,0.368,0.516,0.953,0.516c3.412,0,6.688-1.224,7.303-2.729c0.004-0.011,0.004-0.022,0.009-0.033 c0.404,0.423,0.743,1.137,0.515,2.311c-0.031,0.16,0.018,0.326,0.131,0.443c1.811,1.87,2.253,3.243,2.257,3.254 c0.065,0.216,0.264,0.355,0.479,0.355c0.048,0,0.096-0.007,0.145-0.021c0.264-0.08,0.414-0.358,0.334-0.623 c-0.019-0.062-0.469-1.506-2.32-3.477c0.294-2.043-0.807-3.142-1.716-3.586c-0.035-0.051-0.059-0.105-0.101-0.154v-0.773 c0.639-0.087,1.282-0.188,1.934-0.317c0.097-0.003,0.187-0.01,0.282-0.014l2.24,2.8c0.089,0.111,0.221,0.179,0.363,0.187 c0.147,0.012,0.281-0.044,0.381-0.146l1.429-1.429l1.429,1.429c0.095,0.095,0.222,0.146,0.354,0.146 c0.026,0,0.053-0.002,0.08-0.006c0.159-0.026,0.295-0.126,0.367-0.27l0.878-1.755l1.292,1.292c0.12,0.12,0.292,0.169,0.459,0.135 c0.166-0.036,0.303-0.154,0.362-0.313l1.188-3.161c0.098-0.258-0.033-0.546-0.292-0.644c-0.256-0.099-0.547,0.033-0.644,0.292 l-0.916,2.435l-1.234-1.234c-0.113-0.114-0.273-0.166-0.434-0.14c-0.159,0.026-0.295,0.126-0.367,0.27l-0.878,1.755l-1.292-1.292 c-0.195-0.195-0.512-0.195-0.707,0l-1.387,1.387l-1.451-1.813c5.768-0.472,8.545-2.421,9.49-3.266l1.42,1.428 c0.124,0.125,0.307,0.176,0.477,0.132c0.171-0.043,0.307-0.174,0.357-0.343c1.385-4.697,1.009-9.858-1.008-14.418l3.473,2.223 c0.231,0.148,0.542,0.08,0.691-0.152C72.302,48.83,72.234,48.521,72.002,48.372z M56.113,56.016h-2.372 c-0.016-0.028-0.026-0.059-0.049-0.085c-2.397-2.738-0.658-4.948-0.583-5.041c0.006-0.007,0.007-0.016,0.012-0.023 c1.014-0.176,2.428-0.241,3.732,0.312c0.261,0.623,0.509,1.254,0.735,1.894c-0.007,0.033-0.02,0.064-0.02,0.1 C57.568,54.709,56.464,55.73,56.113,56.016z M38.314,56.563c-0.02-0.038-1.506-2.973-1.82-5.849 c0.284-0.273,0.881-0.766,1.621-1.003c-0.427,1.233-0.448,3.161,0.063,4.669c0.258,0.762,0.638,1.36,1.11,1.8 c-0.082,0.089-0.135,0.206-0.135,0.337c0,0.276,0.224,0.5,0.5,0.5h3.564c0.276,0,0.5-0.224,0.5-0.5s-0.224-0.5-0.5-0.5h-0.121 c0.362-0.607,0.621-1.562,0.621-3.065c0-0.276-0.224-0.5-0.5-0.5s-0.5,0.224-0.5,0.5c0,1.145-0.167,3.065-1.282,3.065 c-1.093,0-1.87-0.659-2.31-1.958c-0.583-1.723-0.291-3.821,0.122-4.44c0.635,0.104,1.243,0.471,1.808,1.129 c0.181,0.21,0.498,0.233,0.705,0.054c0.209-0.18,0.233-0.496,0.054-0.705c-0.774-0.901-1.642-1.383-2.579-1.482 c-0.077-0.03-0.158-0.04-0.24-0.029c-0.033-0.001-0.065-0.012-0.099-0.012c-0.001,0-0.001,0-0.002,0 c-0.997,0-1.853,0.453-2.453,0.889c0.013-0.396,0.051-0.785,0.135-1.153c0.513-2.266,1.608-4.19,2.288-5.23 c1.751,5.662,5.544,10.205,11.563,13.864c0.184,0.113,0.419,0.094,0.583-0.046c0.164-0.139,0.221-0.367,0.141-0.567 c-1.26-3.149-1.773-6.222-1.561-9.37c0.005-0.008,0.012-0.014,0.016-0.023c0.74,0.41,1.232,0.822,2.106,2.133 c0.08,0.12,0.208,0.2,0.351,0.218c0.142,0.02,0.287-0.025,0.395-0.12c1.089-0.958,1.654-1.813,1.863-2.957 c0.758,1.24,1.408,2.477,1.991,3.732c-2.459-0.61-4.848,0.312-4.962,0.357c-0.257,0.101-0.382,0.391-0.281,0.648 c0.101,0.257,0.392,0.382,0.648,0.282c0.003-0.001,0.035-0.013,0.082-0.03c-0.439,1.036-0.764,2.824,0.723,4.858 c-0.176,0.077-0.299,0.252-0.299,0.457c0,0.276,0.224,0.5,0.5,0.5h4.752c0.276,0,0.5-0.224,0.5-0.5c0-0.266-0.209-0.478-0.47-0.494 c0.248-0.305,0.493-0.682,0.691-1.131c0.069,0.201,0.252,0.341,0.466,0.342c0.001,0,0.001,0,0.002,0 c0.22,0,0.415-0.145,0.479-0.355c0.503-1.665,0.605-3.387,0.306-5.229c0.976,0.95,2.28,2.672,2.28,5.085 c0,3.9-5.512,7.41-6.212,7.84c-0.742,0.146-1.474,0.262-2.198,0.351c0,0,0,0-0.001,0c-0.001,0-0.001,0-0.002,0 c-4.871,0.6-9.347-0.089-13.335-2.057l-2.577-3.576h0.467c0.174,0,0.336-0.091,0.427-0.24 C38.387,56.904,38.394,56.718,38.314,56.563z M31.253,60.542c0.148-1.753,0.334-3.054,0.946-4.31 c0.469,0.62,0.974,1.231,1.547,1.82c0.724,0.745,1.776,1.477,2.781,2.092c-0.854,1.134-1.463,2.457-1.838,3.998 C33.338,63.166,32.441,62.314,31.253,60.542z M39.518,67.816l-4.189-1.537c0.243-2.308,0.941-4.141,2.082-5.615 c1.084,0.612,1.954,1.023,2.029,1.058c0,0,0.001,0,0.001,0c1.678,0.838,3.439,1.453,5.273,1.856 C43.299,64.328,41.037,65.756,39.518,67.816z M52.839,64.947c-0.001,0.004-0.005,0.007-0.006,0.012 c-0.072,0.267,0.086,0.541,0.353,0.613c0,0,0.003,0.001,0.003,0.001c0.009,0.082-0.005,0.155-0.031,0.218 c-0.398,0.974-3.271,2.107-6.451,2.113c-0.197-0.345,0.536-2.072,1.538-3.622c0.04-0.063,0.062-0.131,0.072-0.2 c0.547,0.035,1.097,0.058,1.655,0.058c0.933,0,1.881-0.05,2.844-0.148v0.841C52.816,64.872,52.83,64.909,52.839,64.947z"/><g><path fill="#482b28" d="M65,28.4c3.639,0,6.6,2.96,6.6,6.6v30c0,3.64-2.961,6.6-6.6,6.6H35c-3.639,0-6.6-2.96-6.6-6.6V35 c0-3.64,2.961-6.6,6.6-6.6H65 M65,27H35c-4.418,0-8,3.582-8,8v30c0,4.418,3.582,8,8,8h30c4.418,0,8-3.582,8-8V35 C73,30.582,69.418,27,65,27"/></g></svg>